<svg xmlns="http://www.w3.org/2000/svg" xmlns:xlink="http://www.w3.org/1999/xlink" version="1.1" x="0px" y="0px" viewBox="0 0 300 375" style="enable-background:new 0 0 300 300;" xml:space="preserve"><g><path d="M277,243.8c0-0.2,0-0.3,0-0.5c0,0,0,0,0,0c0-0.2-0.1-0.3-0.2-0.5c0,0,0-0.1-0.1-0.1c-0.1-0.2-0.2-0.3-0.3-0.4l-15.6-15.6   c-0.8-0.8-2-0.8-2.8,0c-0.8,0.8-0.8,2,0,2.8l12.2,12.2H58.3V29.7l12.2,12.2c0.4,0.4,0.9,0.6,1.4,0.6s1-0.2,1.4-0.6   c0.8-0.8,0.8-2,0-2.8L57.7,23.5c0,0-0.1-0.1-0.1-0.1c0,0-0.1-0.1-0.1-0.1c-0.1-0.1-0.3-0.2-0.4-0.3c0,0,0,0,0,0c0,0,0,0,0,0   c-0.2-0.1-0.3-0.1-0.5-0.1c0,0-0.1,0-0.1,0c-0.2,0-0.3,0-0.5,0c0,0,0,0,0,0c-0.2,0-0.3,0.1-0.5,0.2c0,0-0.1,0-0.1,0.1   c-0.2,0.1-0.3,0.2-0.4,0.3L39.2,39.1c-0.8,0.8-0.8,2,0,2.8c0.8,0.8,2,0.8,2.8,0l12.2-12.2v211.9H25c-1.1,0-2,0.9-2,2s0.9,2,2,2   h29.3v29.3c0,1.1,0.9,2,2,2s2-0.9,2-2v-29.3h211.9L258,257.8c-0.8,0.8-0.8,2,0,2.8c0.4,0.4,0.9,0.6,1.4,0.6s1-0.2,1.4-0.6   l15.6-15.6c0,0,0.1-0.1,0.1-0.1c0,0,0.1-0.1,0.1-0.1c0.1-0.1,0.2-0.3,0.3-0.4c0,0,0,0,0,0c0,0,0,0,0,0c0.1-0.2,0.1-0.3,0.1-0.5   C277,243.8,277,243.8,277,243.8z"/><path d="M87.1,136.5c1.1,0.2,2.1-0.5,2.4-1.6c10.1-48.8,23.6-76.8,37.1-76.8s27,28,37.1,76.8c10.8,52.3,25,80,41,80   s30.2-27.7,41-80c0.2-1.1-0.5-2.1-1.6-2.4c-1.1-0.2-2.1,0.5-2.4,1.6c-10.1,48.8-23.6,76.8-37.1,76.8s-27-28-37.1-76.8   c-10.8-52.3-25-80-41-80s-30.2,27.7-41,80C85.3,135.2,86,136.2,87.1,136.5z"/></g><text x="0" y="315" fill="#000000" font-size="5px" font-weight="bold" font-family="'Helvetica Neue', Helvetica, Arial-Unicode, Arial, Sans-serif">Created by Bastien Delmare</text><text x="0" y="320" fill="#000000" font-size="5px" font-weight="bold" font-family="'Helvetica Neue', Helvetica, Arial-Unicode, Arial, Sans-serif">from the Noun Project</text></svg>