<svg xmlns="http://www.w3.org/2000/svg" xmlns:xlink="http://www.w3.org/1999/xlink" version="1.1" x="0px" y="0px" viewBox="0 0 91 113.75" enable-background="new 0 0 91 91" xml:space="preserve"><g><g><g><path d="M80.921,87.947V24.926c0-1.682-1.367-3.051-3.049-3.051H74.87c-1.16,0-2.1,0.939-2.1,2.102c0,1.158,0.939,2.1,2.1,2.1     h1.85v60.723H14.653V26.076h1.977c1.16,0,2.1-0.941,2.1-2.1c0-1.162-0.939-2.102-2.1-2.102h-3.129     c-1.68,0-3.049,1.369-3.049,3.051v63.021c0,1.682,1.369,3.053,3.049,3.053h64.371C79.554,91,80.921,89.629,80.921,87.947z"/><path d="M70.663,37.549H20.69c-1.16,0-2.1,0.939-2.1,2.1v41.76c0,1.16,0.939,2.1,2.1,2.1h49.973c1.162,0,2.1-0.939,2.1-2.1     v-41.76C72.763,38.488,71.825,37.549,70.663,37.549z M68.563,58.328H47.897v-16.58h20.666V58.328z M43.698,41.748v16.58H22.79     v-16.58H43.698z M22.79,62.527h20.908v16.781H22.79V62.527z M47.897,79.309V62.527h20.666v16.781H47.897z"/><path d="M28.372,52.275h2.41v1.666c0,1.16,0.943,2.1,2.102,2.1c1.16,0,2.1-0.939,2.1-2.1v-1.666h2.408c1.162,0,2.1-0.939,2.1-2.1     s-0.938-2.102-2.1-2.102h-2.408v-1.67c0-1.16-0.939-2.1-2.1-2.1c-1.158,0-2.102,0.939-2.102,2.1v1.67h-2.41     c-1.16,0-2.102,0.941-2.102,2.102S27.212,52.275,28.372,52.275z"/><path d="M53.884,52.275h9.021c1.16,0,2.1-0.939,2.1-2.1s-0.939-2.102-2.1-2.102h-9.021c-1.16,0-2.102,0.941-2.102,2.102     S52.724,52.275,53.884,52.275z"/><path d="M37.421,72.275l-1.266-1.057l1.262-1.055c0.891-0.742,1.01-2.068,0.266-2.957c-0.744-0.891-2.07-1.012-2.959-0.266     l-1.844,1.543l-1.844-1.541c-0.891-0.742-2.213-0.623-2.957,0.266c-0.744,0.891-0.625,2.215,0.266,2.961l1.26,1.051l-1.262,1.055     c-0.889,0.746-1.008,2.068-0.264,2.959c0.416,0.496,1.012,0.752,1.613,0.752c0.475,0,0.953-0.16,1.346-0.488l1.844-1.541     l1.846,1.541c0.393,0.328,0.871,0.488,1.346,0.488c0.602,0,1.197-0.256,1.613-0.754C38.429,74.344,38.31,73.018,37.421,72.275z"/><path d="M62.905,71.551h-9.021c-1.16,0-2.102,0.938-2.102,2.1c0,1.158,0.941,2.1,2.102,2.1h9.021c1.16,0,2.1-0.941,2.1-2.1     C65.005,72.488,64.065,71.551,62.905,71.551z"/><path d="M62.905,64.756h-9.021c-1.16,0-2.102,0.938-2.102,2.1c0,1.158,0.941,2.1,2.102,2.1h9.021c1.16,0,2.1-0.941,2.1-2.1     C65.005,65.693,64.065,64.756,62.905,64.756z"/><path d="M69.591,0.295c-0.666-0.371-1.48-0.352-2.129,0.051l-6.627,4.111l-6.766-4.119c-0.693-0.424-1.564-0.406-2.244,0.035     l-6.221,4.07L38.745,0.33c-0.67-0.402-1.506-0.398-2.172,0.008l-6.715,4.088l-5.947-4.031c-0.643-0.439-1.475-0.482-2.162-0.119     c-0.688,0.365-1.115,1.076-1.115,1.854v28.795c-1.125,0.039-2.023,0.959-2.023,2.092c0,1.162,0.938,2.1,2.1,2.1h49.953     c1.162,0,2.1-0.938,2.1-2.1c0-1.156-0.936-2.096-2.094-2.1V2.129C70.669,1.367,70.257,0.666,69.591,0.295z M28.618,8.658     c0.682,0.463,1.568,0.486,2.271,0.057l6.783-4.131l6.9,4.139c0.689,0.416,1.557,0.396,2.23-0.043l6.213-4.066l6.734,4.102     c0.676,0.414,1.527,0.41,2.201-0.008l4.518-2.803v25.012H24.835V6.094L28.618,8.658z"/><path d="M37.894,22.979h-2.982c-0.92,0-1.607-0.529-1.607-1.004c0-1.162-0.941-2.1-2.102-2.1c-1.158,0-2.1,0.938-2.1,2.1     c0,2.754,2.402,5.01,5.428,5.186v0.52c0,1.16,0.941,2.102,2.1,2.102c1.162,0,2.1-0.941,2.1-2.102v-0.563     c2.805-0.365,4.969-2.543,4.969-5.307c0-1.186-0.57-2.896-3.281-4.318c-0.051-0.025-0.105-0.035-0.156-0.057     c-0.08-0.035-0.164-0.061-0.248-0.086c-0.051-0.016-0.098-0.043-0.15-0.055l-0.455-0.092l-5.373-1.107     c-0.465-0.27-0.66-0.471-0.73-0.557c0.002-0.002,0.002-0.012,0.002-0.027c0-0.471,0.686-0.996,1.605-0.996h2.982     c0.922,0,1.611,0.525,1.611,0.996c0,1.16,0.938,2.1,2.1,2.1c1.158,0,2.1-0.939,2.1-2.1c0-2.617-2.18-4.783-5-5.139     c-0.125-1.039-1-1.848-2.074-1.848c-1.057,0-1.926,0.787-2.07,1.807c-3.035,0.164-5.453,2.428-5.453,5.348     c0,1.178,0.559,2.875,3.223,4.27c0.094,0.049,0.195,0.072,0.295,0.105c0.027,0.012,0.057,0.02,0.084,0.031     c0.059,0.018,0.111,0.049,0.172,0.061l0.078,0.016c0.031,0.008,0.059,0.021,0.09,0.029l5.66,1.156     c0.467,0.271,0.701,0.496,0.791,0.607c-0.002,0.002-0.002,0.01-0.002,0.02C39.497,22.449,38.812,22.979,37.894,22.979z"/><path d="M50.931,15.127h9.66c1.158,0,2.1-0.941,2.1-2.1c0-1.16-0.941-2.102-2.1-2.102h-9.66c-1.16,0-2.102,0.941-2.102,2.102     C48.829,14.186,49.771,15.127,50.931,15.127z"/><path d="M50.931,21.441h1.959c1.16,0,2.102-0.939,2.102-2.1S54.05,17.24,52.89,17.24h-1.959c-1.16,0-2.102,0.941-2.102,2.102     S49.771,21.441,50.931,21.441z"/><path d="M60.591,17.24h-2.195c-1.162,0-2.102,0.941-2.102,2.102s0.939,2.1,2.102,2.1h2.195c1.158,0,2.1-0.939,2.1-2.1     S61.749,17.24,60.591,17.24z"/><path d="M50.931,27.988h8.561c1.16,0,2.1-0.939,2.1-2.1s-0.939-2.1-2.1-2.1h-8.561c-1.162,0-2.102,0.939-2.102,2.1     S49.769,27.988,50.931,27.988z"/></g></g></g><text x="0" y="106" fill="#000000" font-size="5px" font-weight="bold" font-family="'Helvetica Neue', Helvetica, Arial-Unicode, Arial, Sans-serif">Created by BomSymbols</text><text x="0" y="111" fill="#000000" font-size="5px" font-weight="bold" font-family="'Helvetica Neue', Helvetica, Arial-Unicode, Arial, Sans-serif">from the Noun Project</text></svg>