<svg xmlns="http://www.w3.org/2000/svg" xmlns:xlink="http://www.w3.org/1999/xlink" version="1.1" x="0px" y="0px" viewBox="0 0 512 640" style="enable-background:new 0 0 512 512;" xml:space="preserve"><g><path d="M141,401.4V442h-23.8c-6.6,0-12,5.4-12,12s5.4,12,12,12h277.6c6.6,0,12-5.4,12-12s-5.4-12-12-12H374   v-39.8c0-31.4-13.2-61.5-36.3-82.7l-64.2-58.8l65.4-63.2c21.7-21,34.2-50.3,34.2-80.5V70h21.8c6.6,0,12-5.4,12-12s-5.4-12-12-12   H117.2c-6.6,0-12,5.4-12,12s5.4,12,12,12H139v47.1c0,30.2,12.5,59.5,34.2,80.5l65.4,63.3l-62.5,58.9   C153.6,340.8,141,370.6,141,401.4z M163,117.1V70h186v47.1c0,23.7-9.8,46.7-26.8,63.2l-66.1,64l-66.2-64   C172.8,163.8,163,140.8,163,117.1z M192.5,337.2l63.7-59.9l65.3,59.9c18.2,16.6,28.4,40.3,28.4,65V442H165v-40.6   C165,377.2,174.9,353.8,192.5,337.2z"/></g><text x="0" y="527" fill="#000000" font-size="5px" font-weight="bold" font-family="'Helvetica Neue', Helvetica, Arial-Unicode, Arial, Sans-serif">Created by Chandru</text><text x="0" y="532" fill="#000000" font-size="5px" font-weight="bold" font-family="'Helvetica Neue', Helvetica, Arial-Unicode, Arial, Sans-serif">from the Noun Project</text></svg>