<svg xmlns="http://www.w3.org/2000/svg" xmlns:xlink="http://www.w3.org/1999/xlink" version="1.1" x="0px" y="0px" viewBox="0 0 100 125" enable-background="new 0 0 100 100" xml:space="preserve"><path d="M96.181,17.55L80.696,2.635c-0.095-0.092-0.188-0.151-0.356-0.14c-0.132,0.002-0.259,0.058-0.351,0.153l-9.681,10.05  c-0.001,0.002-0.003,0.002-0.005,0.004s-0.002,0.004-0.004,0.005l-5.157,5.355c-0.001,0.001-0.002,0.001-0.003,0.002  s-0.001,0.002-0.002,0.003L54.81,28.79l0,0l0,0l-5.164,5.361c0,0-0.001,0.001-0.002,0.001s0,0.001-0.001,0.002l-5.163,5.36  c0,0,0,0,0,0s0,0,0,0L28.987,55.599c0,0.001-0.002,0.001-0.002,0.002s-0.001,0.002-0.001,0.003l-5.162,5.358  c-0.001,0.001-0.002,0.001-0.003,0.002s-0.001,0.002-0.002,0.003l-5.161,5.358c0,0-0.001,0.001-0.001,0.001s0,0.001-0.001,0.002  l-5.163,5.36c0,0,0,0,0,0s0,0,0,0L8.326,77.05c0,0-0.001,0-0.002,0.001s-0.001,0.001-0.001,0.002l-4.518,4.69  c-0.191,0.198-0.186,0.516,0.014,0.707l15.485,14.915c0.093,0.09,0.217,0.14,0.347,0.14c0.003,0,0.006,0,0.009,0  c0.133-0.003,0.259-0.058,0.351-0.153l76.184-79.095C96.386,18.058,96.38,17.742,96.181,17.55z M19.637,96.298L4.873,82.076  l3.826-3.972l4.141,3.989c0.097,0.093,0.222,0.14,0.347,0.14c0.131,0,0.262-0.051,0.36-0.153c0.191-0.198,0.186-0.516-0.014-0.707  l-4.141-3.988l4.472-4.643l4.142,3.989c0.097,0.093,0.222,0.14,0.347,0.14c0.131,0,0.262-0.051,0.36-0.153  c0.191-0.198,0.186-0.516-0.014-0.707l-4.141-3.989l4.471-4.642l4.142,3.989c0.097,0.093,0.222,0.14,0.347,0.14  c0.131,0,0.262-0.051,0.36-0.153c0.191-0.198,0.186-0.516-0.014-0.707l-4.141-3.988l4.471-4.643l4.141,3.989  c0.097,0.093,0.222,0.14,0.347,0.14c0.131,0,0.262-0.051,0.36-0.153c0.191-0.198,0.186-0.516-0.014-0.707l-4.141-3.988l4.472-4.644  l4.141,3.989c0.097,0.093,0.222,0.14,0.347,0.14c0.131,0,0.262-0.051,0.36-0.153c0.191-0.198,0.186-0.516-0.014-0.707l-4.141-3.988  l4.471-4.642l4.142,3.988c0.097,0.093,0.222,0.14,0.347,0.14c0.131,0,0.262-0.051,0.36-0.153c0.191-0.199,0.186-0.516-0.014-0.707  l-4.141-3.988l4.471-4.642l4.142,3.989c0.097,0.093,0.222,0.14,0.347,0.14c0.131,0,0.262-0.051,0.36-0.153  c0.191-0.199,0.186-0.515-0.014-0.707l-4.141-3.989l4.471-4.642l4.142,3.989c0.097,0.093,0.222,0.14,0.347,0.14  c0.131,0,0.262-0.051,0.36-0.153c0.191-0.199,0.186-0.515-0.014-0.707l-4.141-3.989l4.471-4.642l4.141,3.989  c0.097,0.093,0.222,0.14,0.347,0.14c0.131,0,0.262-0.051,0.36-0.153c0.191-0.199,0.186-0.515-0.014-0.707l-4.141-3.988l4.472-4.643  l4.142,3.988c0.097,0.093,0.222,0.14,0.347,0.14c0.131,0,0.262-0.051,0.36-0.153c0.191-0.199,0.186-0.515-0.014-0.707l-4.142-3.988  l4.472-4.643l4.141,3.988c0.097,0.094,0.222,0.14,0.347,0.14c0.131,0,0.262-0.051,0.36-0.153c0.191-0.199,0.186-0.515-0.014-0.707  l-4.141-3.988l4.472-4.643l4.142,3.989c0.097,0.093,0.222,0.14,0.347,0.14c0.131,0,0.262-0.051,0.36-0.153  c0.191-0.199,0.186-0.515-0.014-0.707l-4.141-3.988l4.471-4.642l4.141,3.988c0.097,0.093,0.222,0.14,0.347,0.14  c0.131,0,0.262-0.051,0.36-0.153c0.191-0.199,0.186-0.515-0.014-0.707l-4.141-3.988l4.472-4.642l4.142,3.988  c0.097,0.093,0.222,0.14,0.347,0.14c0.131,0,0.262-0.051,0.36-0.153c0.191-0.199,0.186-0.515-0.014-0.707l-4.142-3.988l3.826-3.972  l14.764,14.221L19.637,96.298z"/><text x="0" y="115" fill="#000000" font-size="5px" font-weight="bold" font-family="'Helvetica Neue', Helvetica, Arial-Unicode, Arial, Sans-serif">Created by Gacem Tachfin</text><text x="0" y="120" fill="#000000" font-size="5px" font-weight="bold" font-family="'Helvetica Neue', Helvetica, Arial-Unicode, Arial, Sans-serif">from the Noun Project</text></svg>