<svg xmlns="http://www.w3.org/2000/svg" xmlns:xlink="http://www.w3.org/1999/xlink" version="1.1" x="0px" y="0px" viewBox="0 0 100 125" style="enable-background:new 0 0 100 100;" xml:space="preserve"><style type="text/css">
	.st0{fill:none;stroke:#000000;stroke-width:2;stroke-linecap:round;stroke-linejoin:round;stroke-miterlimit:10;}
</style><path d="M22,50.7c0.3,1,1.2,1.6,2.2,1.6c0.2,0,0.4,0,0.6-0.1L42.7,47c0.1,0,0.2-0.1,0.3-0.2l3.7-2.9c0.2,0.2,0.5,0.4,0.8,0.6  l-2.1,41.3h-3.1c-0.6,0-1,0.4-1,1s0.4,1,1,1h14.9c0.6,0,1-0.4,1-1s-0.4-1-1-1h-3.1L52,44.7c0.2-0.1,0.4-0.3,0.6-0.4l2.8,3.2  c0.1,0.1,0.2,0.2,0.3,0.2l16.9,8.1c0.3,0.2,0.7,0.2,1,0.2c0.9,0,1.7-0.5,2.1-1.3l1.2-2.6c0.5-1.1,0.1-2.5-1.1-3l-16.8-8.1  C59,41,58.9,41,58.8,41l-4.5-0.3c0-1.5-0.8-2.8-1.9-3.6l2-3.6c0.1-0.1,0.1-0.2,0.1-0.4L57,14.5c0.2-1.2-0.7-2.4-2-2.6l-2.8-0.4  c-0.6-0.1-1.2,0.1-1.7,0.5c-0.5,0.4-0.8,0.9-0.9,1.5L47.2,32c0,0.1,0,0.3,0,0.4l1.1,4.2c-1.6,0.6-2.7,2-2.9,3.7l-4.3-0.5  c-0.1,0-0.3,0-0.4,0l-18,5.3c-1.2,0.4-1.9,1.6-1.5,2.8L22,50.7z M52.1,85.8h-4.8l2.1-40.6c0.2,0,0.3,0,0.5,0c0.1,0,0.1,0,0.2,0  L52.1,85.8z M75.1,50.9c0.1,0.1,0.2,0.2,0.1,0.4L74,53.9c-0.1,0.1-0.2,0.2-0.4,0.1l-16.8-8l-2.9-3.3c0,0,0,0,0,0l4.5,0.3L75.1,50.9z   M51.6,13.8c0-0.1,0.1-0.2,0.1-0.2c0,0,0.1-0.1,0.2-0.1l2.8,0.4c0.2,0,0.3,0.2,0.2,0.3l-2.5,18.4l-2.1,3.7c-0.1,0-0.1,0-0.2,0  L49.2,32L51.6,13.8z M49.8,38.3c1.4,0,2.5,1.1,2.5,2.5s-1.1,2.5-2.5,2.5c-1.4,0-2.5-1.1-2.5-2.5S48.5,38.3,49.8,38.3z M23.3,47.1  l17.8-5.3l4.5,0.5l-3.6,2.9l-17.7,5.2c-0.1,0-0.3,0-0.4-0.2l-0.8-2.7C23,47.3,23.1,47.1,23.3,47.1z"/><text x="0" y="115" fill="#000000" font-size="5px" font-weight="bold" font-family="'Helvetica Neue', Helvetica, Arial-Unicode, Arial, Sans-serif">Created by Made by Made</text><text x="0" y="120" fill="#000000" font-size="5px" font-weight="bold" font-family="'Helvetica Neue', Helvetica, Arial-Unicode, Arial, Sans-serif">from the Noun Project</text></svg>