<svg xmlns="http://www.w3.org/2000/svg" viewBox="0 0 48 60" x="0px" y="0px"><title>currency, exchange, money</title><g><path d="M14,4A10,10,0,1,0,24,14,10,10,0,0,0,14,4Zm0,18a8,8,0,1,1,8-8A8,8,0,0,1,14,22Z"/><path d="M34,24A10,10,0,1,0,44,34,10,10,0,0,0,34,24Zm0,18a8,8,0,1,1,8-8A8,8,0,0,1,34,42Z"/><path d="M29,12h2a3.29,3.29,0,0,1,3,3v1.59l-.29-.3a1,1,0,0,0-1.42,1.42l2,2a1,1,0,0,0,1.42,0l2-2a1,1,0,0,0-1.42-1.42l-.29.3V15a5.27,5.27,0,0,0-5-5H29a1,1,0,0,0,0,2Z"/><path d="M19,36H17a3.29,3.29,0,0,1-3-3V31.41l.29.3a1,1,0,0,0,1.42,0,1,1,0,0,0,0-1.42l-2-2a1,1,0,0,0-1.42,0l-2,2a1,1,0,0,0,1.42,1.42l.29-.3V33a5.27,5.27,0,0,0,5,5h2a1,1,0,0,0,0-2Z"/></g><text x="0" y="63" fill="#000000" font-size="5px" font-weight="bold" font-family="'Helvetica Neue', Helvetica, Arial-Unicode, Arial, Sans-serif">Created by Deemak Daksina</text><text x="0" y="68" fill="#000000" font-size="5px" font-weight="bold" font-family="'Helvetica Neue', Helvetica, Arial-Unicode, Arial, Sans-serif">from the Noun Project</text></svg>