<svg xmlns:dc="http://purl.org/dc/elements/1.1/" xmlns:cc="http://creativecommons.org/ns#" xmlns:rdf="http://www.w3.org/1999/02/22-rdf-syntax-ns#" xmlns:svg="http://www.w3.org/2000/svg" xmlns="http://www.w3.org/2000/svg" version="1.1" viewBox="0 0 16.933334 21.166665000000002" x="0px" y="0px"><g transform="translate(0,-118.53333)" style="" display="inline"><path transform="matrix(0.26458333,0,0,0.26458333,0,118.53333)" d="M 36.134766 12.429688 C 26.75777 12.429688 19.134766 20.054671 19.134766 29.431641 C 19.134766 30.075247 19.188532 30.704843 19.263672 31.328125 C 14.497966 32.183606 10.865234 36.353975 10.865234 41.361328 C 10.865234 46.984736 15.44495 51.570312 21.068359 51.570312 C 25.249065 51.570312 28.848276 49.033124 30.421875 45.421875 C 32.210354 46.063479 34.12752 46.433594 36.134766 46.433594 C 45.511763 46.433594 53.134766 38.810602 53.134766 29.433594 C 53.134766 20.056624 45.511763 12.431641 36.134766 12.431641 L 36.134766 12.429688 z M 36.134766 14.433594 C 38.188934 14.433594 40.144446 14.84738 41.925781 15.591797 L 42.673828 22.109375 L 46.173828 23.658203 L 48.240234 26.435547 L 51.005859 27.558594 C 51.082487 28.17409 51.134766 28.797041 51.134766 29.433594 C 51.134766 34.830193 48.287904 39.539547 44.021484 42.181641 L 40.453125 35.669922 L 35.425781 34.703125 L 31.609375 37.285156 L 32.958984 38.089844 L 34.8125 39.191406 L 36.289062 41.722656 L 43.988281 42.201172 C 41.702987 43.60828 39.020486 44.433594 36.134766 44.433594 C 34.337798 44.433594 32.627777 44.094092 31.035156 43.511719 C 31.18492 42.81739 31.269531 42.099434 31.269531 41.361328 C 31.269531 36.719176 28.146802 32.79659 23.894531 31.566406 L 24.892578 29.181641 L 29.630859 26.332031 L 30.841797 21.830078 L 35.056641 19.039062 L 36.068359 14.4375 C 36.090772 14.437387 36.112327 14.433594 36.134766 14.433594 z M 33.980469 14.603516 L 33.277344 17.822266 L 29.099609 20.582031 L 27.910156 25.033203 L 23.304688 27.800781 L 21.878906 31.199219 C 21.672034 31.182813 21.464019 31.17178 21.253906 31.167969 C 21.184354 30.598165 21.134766 30.022757 21.134766 29.433594 C 21.134766 21.871099 26.711068 15.647837 33.980469 14.603516 z M 44.072266 16.716797 C 47.148973 18.639123 49.475542 21.636934 50.519531 25.197266 L 49.509766 24.789062 L 47.464844 22.042969 L 44.527344 20.744141 L 44.072266 16.716797 z M 34.982422 19.857422 L 33.564453 22.884766 L 30.974609 24.921875 L 32.207031 26.494141 L 35.173828 24.160156 L 36.791016 20.707031 L 34.982422 19.857422 z M 30.980469 30.050781 L 29.025391 30.486328 L 29.785156 33.912109 L 32.708984 35.447266 L 33.646484 33.683594 L 31.542969 32.576172 L 30.980469 30.050781 z M 21.068359 33.160156 C 25.610888 33.160156 29.269531 36.818827 29.269531 41.361328 C 29.269531 45.903867 25.610888 49.570312 21.068359 49.570312 C 16.525831 49.570312 12.865234 45.903867 12.865234 41.361328 C 12.865234 36.818827 16.525831 33.160156 21.068359 33.160156 z M 20.064453 34.193359 L 20.064453 41.78125 L 25.429688 47.140625 L 26.839844 45.722656 L 22.064453 40.947266 L 22.064453 34.193359 L 20.064453 34.193359 z M 35.861328 36.820312 L 39.152344 37.455078 L 40.533203 39.988281 L 37.476562 39.794922 L 36.28125 37.736328 L 35.335938 37.175781 L 35.861328 36.820312 z " style="color:#000000;font-style:normal;font-variant:normal;font-weight:normal;font-stretch:normal;font-size:medium;line-height:normal;font-family:sans-serif;font-variant-ligatures:normal;font-variant-position:normal;font-variant-caps:normal;font-variant-numeric:normal;font-variant-alternates:normal;font-feature-settings:normal;text-indent:0;text-align:start;text-decoration:none;text-decoration-line:none;text-decoration-style:solid;text-decoration-color:#000000;letter-spacing:normal;word-spacing:normal;text-transform:none;writing-mode:lr-tb;direction:ltr;text-orientation:mixed;dominant-baseline:auto;baseline-shift:baseline;text-anchor:start;white-space:normal;shape-padding:0;clip-rule:nonzero;display:inline;overflow:visible;visibility:visible;opacity:1;isolation:auto;mix-blend-mode:normal;color-interpolation:sRGB;color-interpolation-filters:linearRGB;solid-color:#000000;solid-opacity:1;vector-effect:none;fill:#000000;fill-opacity:1;fill-rule:evenodd;stroke:none;stroke-width:2.00000024;stroke-linecap:butt;stroke-linejoin:miter;stroke-miterlimit:4;stroke-dasharray:none;stroke-dashoffset:1.00000012;stroke-opacity:1;paint-order:fill markers stroke;color-rendering:auto;image-rendering:auto;shape-rendering:auto;text-rendering:auto;enable-background:accumulate"/></g><text x="0" y="31.933332" fill="#000000" font-size="5px" font-weight="bold" font-family="'Helvetica Neue', Helvetica, Arial-Unicode, Arial, Sans-serif">Created by Sidiq Fathurochman</text><text x="0" y="36.933332" fill="#000000" font-size="5px" font-weight="bold" font-family="'Helvetica Neue', Helvetica, Arial-Unicode, Arial, Sans-serif">from the Noun Project</text></svg>