<svg xmlns="http://www.w3.org/2000/svg" xmlns:xlink="http://www.w3.org/1999/xlink" viewBox="0 0 51 75" version="1.1" x="0px" y="0px"><title>043 - Circuit </title><desc>Created with Sketch.</desc><g stroke="none" stroke-width="1" fill="none" fill-rule="evenodd"><g transform="translate(0.000000, -1.000000)" fill="#000000" fill-rule="nonzero"><path d="M10,6 L6,6 C5.44771525,6 5,6.44771525 5,7 C5,7.55228475 5.44771525,8 6,8 L10,8 C10.5522847,8 11,7.55228475 11,7 C11,6.44771525 10.5522847,6 10,6 Z"/><path d="M36,6 L35,6 L35,5 C35,4.44771525 34.5522847,4 34,4 C33.4477153,4 33,4.44771525 33,5 L33,6 L32,6 C31.4477153,6 31,6.44771525 31,7 C31,7.55228475 31.4477153,8 32,8 L33,8 L33,9 C33,9.55228475 33.4477153,10 34,10 C34.5522847,10 35,9.55228475 35,9 L35,8 L36,8 C36.5522847,8 37,7.55228475 37,7 C37,6.44771525 36.5522847,6 36,6 Z"/><path d="M49.2,28.4 L40.2,40.4 C40.1822459,40.4324626 40.1662235,40.4658427 40.152,40.5 C40.1151733,40.5586663 40.0853054,40.6214225 40.063,40.687 C40.0425803,40.7520514 40.0291708,40.8190988 40.023,40.887 C40.0128849,40.9241266 40.0052019,40.9618734 40,41 L40,53 L27.92,53 C27.425705,49.558213 24.4771002,47.0028214 21,47.0028214 C17.5228998,47.0028214 14.574295,49.558213 14.08,53 L2,53 L2,13 L16,13 L16,15 C16,15.5522847 16.4477153,16 17,16 C17.5522847,16 18,15.5522847 18,15 L18,13 L24,13 L24,18 C24,18.5522847 24.4477153,19 25,19 C25.5522847,19 26,18.5522847 26,18 L26,13 L40,13 L40,28 C40,28.5522847 40.4477153,29 41,29 C41.5522847,29 42,28.5522847 42,28 L42,13 C42,11.8954305 41.1045695,11 40,11 L38.46,11 C40.6218013,8.59771555 40.4924985,4.91480231 38.1675448,2.67004263 C35.8425912,0.425282954 32.1574088,0.425282954 29.8324552,2.67004263 C27.5075015,4.91480231 27.3781987,8.59771555 29.54,11 L26,11 L26,6 C26,5.44771525 25.5522847,5 25,5 C24.4477153,5 24,5.44771525 24,6 L24,11 L18,11 L18,9 C18,8.44771525 17.5522847,8 17,8 C16.4477153,8 16,8.44771525 16,9 L16,11 L12.46,11 C14.6218013,8.59771555 14.4924985,4.91480231 12.1675448,2.67004263 C9.84259119,0.425282954 6.15740881,0.425282954 3.83245516,2.67004263 C1.50750152,4.91480231 1.3781987,8.59771555 3.54,11 L2,11 C0.8954305,11 0,11.8954305 0,13 L0,53 C0,54.1045695 0.8954305,55 2,55 L14.08,55 C14.574295,58.441787 17.5228998,60.9971786 21,60.9971786 C24.4771002,60.9971786 27.425705,58.441787 27.92,55 L40,55 C41.1045695,55 42,54.1045695 42,53 L42,41.333 L50.8,29.6 C51.0143594,29.3141875 51.0599564,28.9357266 50.9196152,28.6071797 C50.7792741,28.2786328 50.4743158,28.0499141 50.1196152,28.0071797 C49.7649147,27.9644453 49.4143594,28.1141875 49.2,28.4 Z M30,7 C30,4.790861 31.790861,3 34,3 C36.209139,3 38,4.790861 38,7 C38,9.209139 36.209139,11 34,11 C31.790861,11 30,9.209139 30,7 Z M4,7 C4,4.790861 5.790861,3 8,3 C10.209139,3 12,4.790861 12,7 C12,9.209139 10.209139,11 8,11 C5.790861,11 4,9.209139 4,7 Z M25.167,56.753 L22.414,54 L25.167,51.247 C26.2775928,52.9143235 26.2775928,55.0856765 25.167,56.753 Z M23.753,49.833 L21,52.586 L18.247,49.833 C19.9143235,48.7224072 22.0856765,48.7224072 23.753,49.833 Z M16.833,56.753 C15.7224072,55.0856765 15.7224072,52.9143235 16.833,51.247 L19.586,54 L16.833,56.753 Z M18.247,58.167 L21,55.414 L23.753,58.167 C22.0856765,59.2775928 19.9143235,59.2775928 18.247,58.167 Z"/></g></g><text x="0" y="75" fill="#000000" font-size="5px" font-weight="bold" font-family="'Helvetica Neue', Helvetica, Arial-Unicode, Arial, Sans-serif">Created by Ben Davis</text><text x="0" y="80" fill="#000000" font-size="5px" font-weight="bold" font-family="'Helvetica Neue', Helvetica, Arial-Unicode, Arial, Sans-serif">from the Noun Project</text></svg>