<svg xmlns="http://www.w3.org/2000/svg" viewBox="0 0 36 45" x="0px" y="0px"><title>Монтажная область 78</title><path d="M18,0A18,18,0,0,0,3.39,28.5a17.48,17.48,0,0,0,2,2.36,18,18,0,0,0,25.18,0,17.48,17.48,0,0,0,2-2.36A18,18,0,0,0,18,0Zm0,33A14.94,14.94,0,0,1,7.3,28.5a15,15,0,0,1,21.4,0A14.94,14.94,0,0,1,18,33Zm12.59-6.86a18,18,0,0,0-10-4.95l3.61-5.34a1.5,1.5,0,1,0-2.48-1.68l-4.65,6.88A17.92,17.92,0,0,0,5.41,26.14,14.83,14.83,0,0,1,3,18a15,15,0,0,1,30,0A14.83,14.83,0,0,1,30.59,26.14Z"/><circle cx="18" cy="6.5" r="1.5"/><circle cx="9.87" cy="9.87" r="1.5"/><circle cx="6.5" cy="18" r="1.5"/><circle cx="29.5" cy="18" r="1.5"/><circle cx="26.13" cy="9.87" r="1.5"/><text x="0" y="51" fill="#000000" font-size="5px" font-weight="bold" font-family="'Helvetica Neue', Helvetica, Arial-Unicode, Arial, Sans-serif">Created by Vadim Solomakhin</text><text x="0" y="56" fill="#000000" font-size="5px" font-weight="bold" font-family="'Helvetica Neue', Helvetica, Arial-Unicode, Arial, Sans-serif">from the Noun Project</text></svg>