<svg xmlns="http://www.w3.org/2000/svg" viewBox="0 0 100 125" x="0px" y="0px"><title>education-40</title><g data-name="Layer 2"><path d="M23.15,4.87a4.4,4.4,0,0,0-4.4,4.4V90.73a4.4,4.4,0,0,0,4.4,4.4h53.7a4.4,4.4,0,0,0,4.4-4.4V9.27a4.4,4.4,0,0,0-4.4-4.4Zm55.6,4.4V90.73a1.9,1.9,0,0,1-1.9,1.9H23.15a1.9,1.9,0,0,1-1.9-1.9V9.27a1.9,1.9,0,0,1,1.9-1.9h53.7A1.9,1.9,0,0,1,78.75,9.27Z"/><path d="M75,11.25H25a1.25,1.25,0,0,0-1.25,1.25v20A1.25,1.25,0,0,0,25,33.75H75a1.25,1.25,0,0,0,1.25-1.25v-20A1.25,1.25,0,0,0,75,11.25Zm-1.25,20H26.25V13.75h47.5Z"/><path d="M38.69,38.75H27.38A1.25,1.25,0,0,0,26.13,40V51.31a1.25,1.25,0,0,0,1.25,1.25H38.69a1.25,1.25,0,0,0,1.25-1.25V40A1.25,1.25,0,0,0,38.69,38.75ZM37.44,50.06H28.63V41.25h8.81Z"/><path d="M55.65,38.75H44.35A1.25,1.25,0,0,0,43.1,40V51.31a1.25,1.25,0,0,0,1.25,1.25h11.3a1.25,1.25,0,0,0,1.25-1.25V40A1.25,1.25,0,0,0,55.65,38.75ZM54.4,50.06H45.6V41.25h8.8Z"/><path d="M72.62,38.75H61.31A1.25,1.25,0,0,0,60.06,40V51.31a1.25,1.25,0,0,0,1.25,1.25H72.62a1.25,1.25,0,0,0,1.25-1.25V40A1.25,1.25,0,0,0,72.62,38.75ZM71.37,50.06H62.56V41.25h8.81Z"/><path d="M38.69,56.85H27.38a1.25,1.25,0,0,0-1.25,1.25V69.4a1.25,1.25,0,0,0,1.25,1.25H38.69a1.25,1.25,0,0,0,1.25-1.25V58.1A1.25,1.25,0,0,0,38.69,56.85Zm-1.25,11.3H28.63v-8.8h8.81Z"/><path d="M55.65,56.85H44.35A1.25,1.25,0,0,0,43.1,58.1V69.4a1.25,1.25,0,0,0,1.25,1.25h11.3A1.25,1.25,0,0,0,56.9,69.4V58.1A1.25,1.25,0,0,0,55.65,56.85ZM54.4,68.15H45.6v-8.8h8.8Z"/><path d="M72.62,56.85H61.31a1.25,1.25,0,0,0-1.25,1.25V69.4a1.25,1.25,0,0,0,1.25,1.25H72.62a1.25,1.25,0,0,0,1.25-1.25V58.1A1.25,1.25,0,0,0,72.62,56.85Zm-1.25,11.3H62.56v-8.8h8.81Z"/><path d="M38.69,74.94H27.38a1.25,1.25,0,0,0-1.25,1.25V87.5a1.25,1.25,0,0,0,1.25,1.25H38.69a1.25,1.25,0,0,0,1.25-1.25V76.19A1.25,1.25,0,0,0,38.69,74.94ZM37.44,86.25H28.63V77.44h8.81Z"/><path d="M55.65,74.94H44.35a1.25,1.25,0,0,0-1.25,1.25V87.5a1.25,1.25,0,0,0,1.25,1.25h11.3A1.25,1.25,0,0,0,56.9,87.5V76.19A1.25,1.25,0,0,0,55.65,74.94ZM54.4,86.25H45.6V77.44h8.8Z"/><path d="M72.62,74.94H61.31a1.25,1.25,0,0,0-1.25,1.25V87.5a1.25,1.25,0,0,0,1.25,1.25H72.62a1.25,1.25,0,0,0,1.25-1.25V76.19A1.25,1.25,0,0,0,72.62,74.94ZM71.37,86.25H62.56V77.44h8.81Z"/></g><text x="0" y="115" fill="#000000" font-size="5px" font-weight="bold" font-family="'Helvetica Neue', Helvetica, Arial-Unicode, Arial, Sans-serif">Created by iconnut</text><text x="0" y="120" fill="#000000" font-size="5px" font-weight="bold" font-family="'Helvetica Neue', Helvetica, Arial-Unicode, Arial, Sans-serif">from the Noun Project</text></svg>