<svg xmlns="http://www.w3.org/2000/svg" xmlns:xlink="http://www.w3.org/1999/xlink" version="1.1" x="0px" y="0px" viewBox="0 0 100 125" enable-background="new 0 0 100 100" xml:space="preserve"><path d="M30.231,21.419l2.648-9.555c13.354-11.972,27.628-9.094,34.996-1.266c5.065,5.41,6.446,11.627,7.713,18.649  c2.532,12.893-0.806,34.881-8.174,46.853C60.968,87.613,49.11,95.786,37.599,93.369c-9.785-1.267-20.606-13.354-13.469-39.602  c5.986-21.987,37.874-30.045,42.019-8.058c2.993-16.347,0.921-22.333-5.065-29.471C55.672,9.792,42.434,9.332,30.231,21.419z   M62.925,64.819c8.519-24.521-24.175-28.895-29.355-9.095c-3.108,12.088-3.338,24.751,4.72,27.975  C49.11,87.383,59.011,75.641,62.925,64.819z"/><text x="0" y="115" fill="#000000" font-size="5px" font-weight="bold" font-family="'Helvetica Neue', Helvetica, Arial-Unicode, Arial, Sans-serif">Created by Jason D. Rowley</text><text x="0" y="120" fill="#000000" font-size="5px" font-weight="bold" font-family="'Helvetica Neue', Helvetica, Arial-Unicode, Arial, Sans-serif">from the Noun Project</text></svg>