<svg xmlns="http://www.w3.org/2000/svg" data-name="Layer 1" viewBox="0 0 100 125" x="0px" y="0px"><title>Shoes Vol.1</title><path d="M64.36,75.89c-3.53,0-7.32-.12-11.41-.29-6.31-.25-13.1-.21-19.66-.17-11.35.07-21.16.13-25-1.4a8.25,8.25,0,0,1-5.4-6.54,7.12,7.12,0,0,1,2.46-6.61,1.33,1.33,0,0,1,1.2-.22c.14,0,14.08,4.16,24,4.38,4.79.11,9.77.67,15.05,1.26a165.93,165.93,0,0,0,18.2,1.36c10.51,0,23-2.17,27.21-7A5.61,5.61,0,0,0,92.47,56a1.34,1.34,0,0,1,.79-1.42,1.36,1.36,0,0,1,1.58.37,10.65,10.65,0,0,1,2.23,7.87c-.49,2.88-2.42,5.36-5.76,7.37C83.7,74.75,75.21,75.89,64.36,75.89ZM40.7,72.71c4.19,0,8.36,0,12.36.2,16.13.64,27.42.63,36.86-5,2.63-1.59,4.14-3.44,4.49-5.51a5.89,5.89,0,0,0,0-1.92,9.16,9.16,0,0,1-1.33,2c-5.1,5.87-18.94,8-29.25,8A167.65,167.65,0,0,1,45.33,69c-5.22-.58-10.14-1.14-14.8-1.24-9.09-.2-20.91-3.4-24-4.28a4.71,4.71,0,0,0-1,3.66,5.49,5.49,0,0,0,3.73,4.4c3.35,1.34,13.37,1.28,24,1.22C35.73,72.72,38.22,72.71,40.7,72.71Z"/><path d="M6,62.9c-1.42-2.54.46-22.94,2.21-24,.12-.07.55-.28,1.21-.59,2.31-1.08,8.44-4,11.26-6.35a12.29,12.29,0,0,1,8-2.77c1.32-2.4,5.55-4.85,9.11-4.95,3.83-.12,5.72,4.56,7.4,8.68a36.26,36.26,0,0,0,1.68,3.74c1.8,3.22,5.31,5.59,10.72,7.24,5,1.53,8.32,3.19,10.37,5.23,1,1,7.7,2.11,16,2.11,6.37,0,9.36,2.46,10.34,3.26l.17.14L93.2,57a3.52,3.52,0,0,1-.57-.4C91.75,55.87,89.4,54,84,54c-1.54,0-15.11-.08-17.93-2.9-1.72-1.72-4.65-3.17-9.24-4.56-6.12-1.87-10.14-4.64-12.3-8.5a38.25,38.25,0,0,1-1.81-4c-1.29-3.15-2.89-7-4.83-7-3.36.1-6.71,2.86-6.9,3.73a1.27,1.27,0,0,1-.47,1,1.31,1.31,0,0,1-1.08.28,9.79,9.79,0,0,0-7,2.09c-3.09,2.61-9.23,5.5-11.86,6.73L10,41c-.81,3-2.66,18.53-1.62,20.54Z"/><path d="M54.24,45.54C38.91,44.15,29,32,28.59,31.45l2.11-1.68c.09.11,9.62,11.8,23.79,13.08Z"/><path d="M9.42,44.11l-2.67-.38c.07-.48-.9-1.62-1.47-2.31-1.1-1.3-2.24-2.64-1.74-4.15s2.28-1.9,2.87-2.05c2.36-.56,4.11-.32,5.22.71a3.72,3.72,0,0,1,1,3.2L10,38.68l1.33.22L10,38.7a1.09,1.09,0,0,0-.23-.81c-.14-.13-.77-.52-2.74,0a4,4,0,0,0-.86.29,10.73,10.73,0,0,0,1.16,1.55C8.43,41,9.66,42.44,9.42,44.11Z"/><text x="0" y="115" fill="#000000" font-size="5px" font-weight="bold" font-family="'Helvetica Neue', Helvetica, Arial-Unicode, Arial, Sans-serif">Created by Fahmi Ramdani</text><text x="0" y="120" fill="#000000" font-size="5px" font-weight="bold" font-family="'Helvetica Neue', Helvetica, Arial-Unicode, Arial, Sans-serif">from the Noun Project</text></svg>