<svg xmlns="http://www.w3.org/2000/svg" xmlns:xlink="http://www.w3.org/1999/xlink" version="1.1" x="0px" y="0px" viewBox="0 0 300 375" style="enable-background:new 0 0 300 300;" xml:space="preserve"><g><path d="M277,244.2c0-0.2,0-0.3,0-0.5c0,0,0,0,0,0c0-0.2-0.1-0.3-0.2-0.5c0,0,0-0.1-0.1-0.1c-0.1-0.2-0.2-0.3-0.3-0.4L260.8,227   c-0.8-0.8-2-0.8-2.8,0c-0.8,0.8-0.8,2,0,2.8l12.2,12.2H58.3V30.1l12.2,12.2c0.4,0.4,0.9,0.6,1.4,0.6s1-0.2,1.4-0.6   c0.8-0.8,0.8-2,0-2.8L57.7,23.9c0,0-0.1,0-0.1-0.1c0,0-0.1-0.1-0.1-0.1c-0.1-0.1-0.3-0.2-0.4-0.3c0,0,0,0,0,0c0,0,0,0,0,0   c-0.2-0.1-0.3-0.1-0.5-0.1c0,0-0.1,0-0.1,0c-0.2,0-0.3,0-0.5,0c0,0,0,0,0,0c-0.2,0-0.3,0.1-0.5,0.2c0,0-0.1,0-0.1,0.1   c-0.2,0.1-0.3,0.2-0.4,0.3L39.2,39.5c-0.8,0.8-0.8,2,0,2.8c0.8,0.8,2,0.8,2.8,0l12.2-12.2v211.9H25c-1.1,0-2,0.9-2,2s0.9,2,2,2   h29.3v29.3c0,1.1,0.9,2,2,2s2-0.9,2-2v-29.3h211.9L258,258.3c-0.8,0.8-0.8,2,0,2.8c0.4,0.4,0.9,0.6,1.4,0.6s1-0.2,1.4-0.6   l15.6-15.6c0,0,0.1-0.1,0.1-0.1c0,0,0.1-0.1,0.1-0.1c0.1-0.1,0.2-0.3,0.3-0.4c0,0,0,0,0,0c0,0,0,0,0,0c0.1-0.2,0.1-0.3,0.1-0.5   C277,244.3,277,244.2,277,244.2z"/><path d="M165.6,214.8c21.9,0,42.7-19.8,58.5-55.9c13.4-30.5,21.7-69.8,21.7-102.4c0-1.1-0.9-2-2-2s-2,0.9-2,2   c0,32.1-8.2,70.7-21.3,100.8c-15.1,34.5-34.6,53.5-54.8,53.5s-39.7-19-54.8-53.5C97.7,127.3,89.5,88.7,89.5,56.6c0-1.1-0.9-2-2-2   s-2,0.9-2,2c0,32.6,8.3,71.8,21.7,102.4C122.9,195,143.7,214.8,165.6,214.8z"/></g><text x="0" y="315" fill="#000000" font-size="5px" font-weight="bold" font-family="'Helvetica Neue', Helvetica, Arial-Unicode, Arial, Sans-serif">Created by Bastien Delmare</text><text x="0" y="320" fill="#000000" font-size="5px" font-weight="bold" font-family="'Helvetica Neue', Helvetica, Arial-Unicode, Arial, Sans-serif">from the Noun Project</text></svg>