<svg xmlns="http://www.w3.org/2000/svg" xmlns:xlink="http://www.w3.org/1999/xlink" version="1.1" x="0px" y="0px" viewBox="0 0 100 125" style="enable-background:new 0 0 100 100;" xml:space="preserve"><g><path d="M33.5,68.7L49,51.5l15.5,17.2c1.3,1.5,3.2,2.3,5.2,2.3h12.4l-8.3,8.8l1.5,1.4L85.8,70L75.2,58.8l-1.5,1.4l8.3,8.8H69.7   c-1.4,0-2.8-0.6-3.7-1.7L50.3,50L66,32.7c0.9-1.1,2.3-1.7,3.7-1.7h12.4l-8.3,8.8l1.5,1.4L85.8,30L75.2,18.8l-1.5,1.4l8.3,8.8H69.7   c-2,0-3.9,0.8-5.2,2.3L49,48.5L33.5,31.3c-1.3-1.5-3.2-2.3-5.2-2.3H15.6v2h12.7c1.4,0,2.8,0.6,3.7,1.7L47.7,50L32,67.3   c-0.9,1.1-2.3,1.7-3.7,1.7H15.6v2h12.7C30.3,71,32.2,70.2,33.5,68.7z"/></g><text x="0" y="115" fill="#000000" font-size="5px" font-weight="bold" font-family="'Helvetica Neue', Helvetica, Arial-Unicode, Arial, Sans-serif">Created by Ananth</text><text x="0" y="120" fill="#000000" font-size="5px" font-weight="bold" font-family="'Helvetica Neue', Helvetica, Arial-Unicode, Arial, Sans-serif">from the Noun Project</text></svg>