<svg xmlns="http://www.w3.org/2000/svg" xmlns:xlink="http://www.w3.org/1999/xlink" version="1.1" x="0px" y="0px" viewBox="0 0 100 125" enable-background="new 0 0 100 100" xml:space="preserve"><g><path d="M67.082,31.725h-8.135c-1.158-3.846-4.729-6.656-8.947-6.656c-4.218,0-7.789,2.811-8.946,6.656h-8.136   c-2.493,0-4.521,2.028-4.521,4.521V70.41c0,2.494,2.028,4.521,4.521,4.521h34.164c2.492,0,4.521-2.027,4.521-4.521V36.246   C71.604,33.752,69.574,31.725,67.082,31.725z M56.746,37.754c-1.232,2.482-3.789,4.198-6.746,4.198   c-2.957,0-5.514-1.716-6.748-4.198H56.746z M50,26.876c4.156,0,7.537,3.381,7.537,7.539c0,0.525-0.053,1.037-0.156,1.532H52.02   l2.297-2.299c0.354-0.353,0.354-0.925,0-1.278c-0.352-0.353-0.924-0.353-1.275,0l-3.578,3.577H42.62   c-0.103-0.495-0.156-1.007-0.156-1.532C42.463,30.257,45.844,26.876,50,26.876z M69.793,70.41c0,1.495-1.215,2.714-2.711,2.714   H32.918c-1.496,0-2.713-1.219-2.713-2.714V36.246c0-1.496,1.217-2.713,2.713-2.713H40.7c-0.028,0.29-0.046,0.584-0.046,0.882   c0,5.153,4.194,9.346,9.347,9.346c5.154,0,9.345-4.193,9.345-9.346c0-0.297-0.018-0.592-0.045-0.882h7.781   c1.496,0,2.711,1.217,2.711,2.713V70.41z"/><path d="M54.52,65.168h-9.039c-0.5,0-0.903,0.403-0.903,0.903s0.403,0.904,0.903,0.904h9.039c0.5,0,0.904-0.404,0.904-0.904   S55.02,65.168,54.52,65.168z"/></g><text x="0" y="115" fill="#000000" font-size="5px" font-weight="bold" font-family="'Helvetica Neue', Helvetica, Arial-Unicode, Arial, Sans-serif">Created by asianson.design</text><text x="0" y="120" fill="#000000" font-size="5px" font-weight="bold" font-family="'Helvetica Neue', Helvetica, Arial-Unicode, Arial, Sans-serif">from the Noun Project</text></svg>