<svg xmlns="http://www.w3.org/2000/svg" xmlns:xlink="http://www.w3.org/1999/xlink" xmlns:sketch="http://www.bohemiancoding.com/sketch/ns" viewBox="0 0 100 125" version="1.1" x="0px" y="0px"><title>c4</title><desc>Created with Sketch.</desc><g stroke="none" stroke-width="1" fill="none" fill-rule="evenodd" sketch:type="MSPage"><path d="M95,30.4167582 L5,30.4167582 L5,26.9453884 C5,22.5571739 8.55737392,19 12.9453884,19 L87.0546116,19 C91.4428261,19 95,22.5571739 95,26.9453884 L95,30.4167582 Z M18.5370618,66.8717404 C18.5370618,65.7946877 19.4101045,64.9216451 20.4871571,64.9216451 L32.6087498,64.9216451 C33.6858024,64.9216451 34.5588451,65.7946877 34.5588451,66.8717404 C34.5588451,67.948593 33.6858024,68.8218357 32.6087498,68.8218357 L20.4871571,68.8218357 C19.4101045,68.8218357 18.5370618,67.948593 18.5370618,66.8717404 L18.5370618,66.8717404 Z M18.5370618,57.0212588 C18.5370618,54.8671535 20.2831472,53.1210681 22.4372525,53.1210681 L47.8384943,53.1210681 C49.9923996,53.1210681 51.738685,54.8671535 51.738685,57.0212588 C51.738685,59.1751641 49.9923996,60.9214495 47.8384943,60.9214495 L22.4372525,60.9214495 C20.2831472,60.9214495 18.5370618,59.1751641 18.5370618,57.0212588 L18.5370618,57.0212588 Z M67.8502727,55.715995 C67.8502727,54.2827249 69.0121295,53.1210681 70.4451995,53.1210681 L80.1450738,53.1210681 C81.5783438,53.1210681 82.7402006,54.2827249 82.7402006,55.715995 L82.7402006,62.2937166 C82.7402006,63.7269867 81.5783438,64.8888435 80.1450738,64.8888435 L70.4451995,64.8888435 C69.0121295,64.8888435 67.8502727,63.7269867 67.8502727,62.2937166 L67.8502727,55.715995 Z M5,72.8546329 C5,77.2426474 8.55737392,80.7998213 12.9453884,80.7998213 L87.0546116,80.7998213 C91.4428261,80.7998213 95,77.2426474 95,72.8546329 L95,41.1438826 L5,41.1438826 L5,72.8546329 Z" fill="#000000" sketch:type="MSShapeGroup"/></g><text x="0" y="115" fill="#000000" font-size="5px" font-weight="bold" font-family="'Helvetica Neue', Helvetica, Arial-Unicode, Arial, Sans-serif">Created by Icon Island</text><text x="0" y="120" fill="#000000" font-size="5px" font-weight="bold" font-family="'Helvetica Neue', Helvetica, Arial-Unicode, Arial, Sans-serif">from the Noun Project</text></svg>