<svg xmlns="http://www.w3.org/2000/svg" xmlns:xlink="http://www.w3.org/1999/xlink" version="1.1" x="0px" y="0px" viewBox="0 0 144.083 180" enable-background="new 0 0 144.083 144" xml:space="preserve"><path d="M97.2,81.225V43.41L75.905,19.607H39.736c-6.365,0-11.544,5.179-11.544,11.544v63.007c0,6.365,5.179,11.545,11.544,11.545  h32.986c1.466,10.545,10.536,18.689,21.478,18.689c11.961,0,21.691-9.73,21.691-21.689C115.891,91.762,107.745,82.691,97.2,81.225z   M77.563,30.46l9.928,11.096h-9.928V30.46z M34.192,94.158V31.151c0-3.057,2.487-5.544,5.544-5.544h31.827v21.949H91.2v33.668  c-2.635,0.365-5.121,1.203-7.367,2.43h-42.61v6h35.663c-2.174,2.879-3.645,6.313-4.163,10.049H39.736  C36.679,99.703,34.192,97.215,34.192,94.158z M94.2,118.393c-8.652,0-15.689-7.039-15.689-15.689  c0-8.652,7.037-15.691,15.689-15.691s15.691,7.039,15.691,15.691C109.891,111.354,102.852,118.393,94.2,118.393z"/><path d="M93.829,100.145c-2.525-0.301-3.807-0.662-3.807-1.799c0-1.695,2.283-1.949,3.645-1.949c1.613,0,3.396,0.781,3.977,1.74  l0.23,0.383l3.686-1.705l-0.225-0.459c-1.295-2.65-3.596-3.449-5.369-3.775v-2.344h-4.311v2.332  c-3.797,0.592-6.047,2.729-6.047,5.777c0,5.018,4.707,5.545,7.818,5.893c2.826,0.334,4.145,1.012,4.145,2.135  c0,2.174-3.068,2.342-4.008,2.342c-2.111,0-4.143-1.045-4.727-2.432l-0.195-0.461l-3.998,1.695l0.197,0.461  c1.125,2.633,3.535,4.293,6.814,4.709v2.525h4.311v-2.652c3.145-0.387,6.176-2.4,6.176-6.188  C102.141,101.17,97.139,100.553,93.829,100.145z"/><rect x="41.222" y="69.322" width="42.948" height="6"/><rect x="41.222" y="54.932" width="42.948" height="6"/><text x="0" y="159" fill="#000000" font-size="5px" font-weight="bold" font-family="'Helvetica Neue', Helvetica, Arial-Unicode, Arial, Sans-serif">Created by Chanut is Industries</text><text x="0" y="164" fill="#000000" font-size="5px" font-weight="bold" font-family="'Helvetica Neue', Helvetica, Arial-Unicode, Arial, Sans-serif">from the Noun Project</text></svg>