<svg xmlns="http://www.w3.org/2000/svg" xmlns:xlink="http://www.w3.org/1999/xlink" version="1.1" x="0px" y="0px" viewBox="0 0 52 65" style="enable-background:new 0 0 52 52;" xml:space="preserve"><g><g><path d="M44.8225098,36.902832H7.1774902c-0.5522461,0-1-0.4477539-1-1V21.2280273c0-1.6542969,1.3457031-3,3-3h33.6450195    c1.6542969,0,3,1.3457031,3,3V35.902832C45.8225098,36.4550781,45.3747559,36.902832,44.8225098,36.902832z M8.1774902,34.902832    h35.6450195V21.2280273c0-0.5512695-0.4487305-1-1-1H9.1774902c-0.5512695,0-1,0.4487305-1,1V34.902832z"/></g><g><path d="M43.8928223,41.4262695H8.1071777c-2.2055664,0-4-1.7944336-4-4V35.902832c0-0.5522461,0.4477539-1,1-1h41.7856445    c0.5522461,0,1,0.4477539,1,1v1.5234375C47.8928223,39.6318359,46.0983887,41.4262695,43.8928223,41.4262695z     M6.1071777,36.902832v0.5234375c0,1.1030273,0.8969727,2,2,2h35.7856445c1.1030273,0,2-0.8969727,2-2V36.902832H6.1071777z"/></g><g><path d="M31.854248,50H20.145752c-0.3745117,0-0.7172852-0.2089844-0.8891602-0.5419922    c-0.1713867-0.3330078-0.1425781-0.7338867,0.074707-1.0385742l2.2856445-3.2055664    c0.3710938-0.5200195,0.5668945-1.1328125,0.5668945-1.7709961v-3.0166016c0-0.5522461,0.4477539-1,1-1h5.6323242    c0.5522461,0,1,0.4477539,1,1v3.0166016c0,0.6381836,0.1958008,1.2509766,0.5668945,1.7709961l2.2856445,3.2055664    c0.2172852,0.3046875,0.2460938,0.7055664,0.074707,1.0385742C32.5715332,49.7910156,32.2287598,50,31.854248,50z M22.0871582,48    h7.8256836l-1.1586914-1.625c-0.6137695-0.8613281-0.9379883-1.875-0.9379883-2.9321289v-2.0166016h-3.6323242v2.0166016    c0,1.0571289-0.3242188,2.0708008-0.9379883,2.9321289L22.0871582,48z"/></g><g><path d="M18.4050293,20.2280273H13.342041c-0.5522461,0-1-0.4477539-1-1v-6.6391602c0-1.9296875,1.5703125-3.5,3.5-3.5    c1.9926758,0,3.5629883,1.5703125,3.5629883,3.5v6.6391602C19.4050293,19.7802734,18.9572754,20.2280273,18.4050293,20.2280273z     M14.342041,18.2280273h3.0629883v-5.6391602c0-0.8271484-0.6728516-1.5-1.5-1.5c-0.8901367,0-1.5629883,0.6728516-1.5629883,1.5    V18.2280273z"/></g><g><path d="M28.5314941,20.2280273h-5.0629883c-0.5522461,0-1-0.4477539-1-1v-6.6391602c0-1.9296875,1.5703125-3.5,3.5-3.5    c1.9926758,0,3.5629883,1.5703125,3.5629883,3.5v6.6391602C29.5314941,19.7802734,29.0837402,20.2280273,28.5314941,20.2280273z     M24.4685059,18.2280273h3.0629883v-5.6391602c0-0.8271484-0.6728516-1.5-1.5-1.5c-0.8901367,0-1.5629883,0.6728516-1.5629883,1.5    V18.2280273z"/></g><g><path d="M38.657959,20.2280273h-5.0629883c-0.5522461,0-1-0.4477539-1-1v-6.6391602c0-1.9296875,1.5703125-3.5,3.5-3.5    c1.9926758,0,3.5629883,1.5703125,3.5629883,3.5v6.6391602C39.657959,19.7802734,39.2102051,20.2280273,38.657959,20.2280273z     M34.5949707,18.2280273h3.0629883v-5.6391602c0-0.8271484-0.6728516-1.5-1.5-1.5c-0.8901367,0-1.5629883,0.6728516-1.5629883,1.5    V18.2280273z"/></g><g><path d="M15.873291,11.0888672c-1.9472656,0-3.53125-1.5844727-3.53125-3.5317383    c0-1.6235352,2.1054688-4.3769531,2.7509766-5.1826172c0.3793945-0.4731445,1.1801758-0.4741211,1.5605469,0    c0.6455078,0.8051758,2.7514648,3.559082,2.7514648,5.1826172C19.4050293,9.5043945,17.8205566,11.0888672,15.873291,11.0888672z     M15.873291,4.6660156c-0.8300781,1.1782227-1.53125,2.4125977-1.53125,2.8911133    c0,0.8447266,0.6870117,1.5317383,1.53125,1.5317383c0.8447266,0,1.5317383-0.6870117,1.5317383-1.5317383    C17.4050293,7.0786133,16.7033691,5.8442383,15.873291,4.6660156z"/></g><g><path d="M26.0002441,11.0888672c-1.9472656,0-3.5317383-1.5844727-3.5317383-3.5317383    c0-1.6235352,2.105957-4.3774414,2.7514648-5.1826172C25.4099121,2.1376953,25.6970215,2,26.0002441,2l0,0    c0.3037109,0,0.590332,0.1376953,0.7802734,0.3745117c0.6455078,0.8056641,2.7509766,3.559082,2.7509766,5.1826172    C29.5314941,9.5043945,27.9475098,11.0888672,26.0002441,11.0888672z M26.0002441,4.6660156    c-0.8300781,1.1782227-1.5317383,2.4125977-1.5317383,2.8911133c0,0.8447266,0.6870117,1.5317383,1.5317383,1.5317383    c0.8442383,0,1.53125-0.6870117,1.53125-1.5317383C27.5314941,7.0771484,26.8303223,5.8432617,26.0002441,4.6660156z"/></g><g><path d="M36.126709,11.0888672c-1.9472656,0-3.5317383-1.5844727-3.5317383-3.5317383    c0-1.6235352,2.105957-4.3774414,2.7514648-5.1826172C35.536377,2.1376953,35.8234863,2,36.126709,2l0,0    c0.3037109,0,0.590332,0.1376953,0.7802734,0.3745117c0.6455078,0.8056641,2.7509766,3.559082,2.7509766,5.1826172    C39.657959,9.5043945,38.0739746,11.0888672,36.126709,11.0888672z M36.126709,4.6660156    c-0.8300781,1.1782227-1.5317383,2.4125977-1.5317383,2.8911133c0,0.8447266,0.6870117,1.5317383,1.5317383,1.5317383    c0.8442383,0,1.53125-0.6870117,1.53125-1.5317383C37.657959,7.0771484,36.9567871,5.8432617,36.126709,4.6660156z"/></g><g><path d="M44.4992676,28.425293c-0.2021484,0-0.4057617-0.0610352-0.5825195-0.1879883l-3.8564453-2.7705078    c-0.074707-0.0537109-0.2924805-0.0541992-0.3681641-0.0014648L36.598877,27.6875    c-0.7680664,0.5522461-1.9291992,0.5517578-2.7011719-0.0024414l-3.0874023-2.2182617    c-0.074707-0.0537109-0.2919922-0.0541992-0.3681641-0.0014648L27.348877,27.6875    c-0.7680664,0.5522461-1.9291992,0.5517578-2.7011719-0.0024414l-3.0874023-2.2182617    c-0.074707-0.0537109-0.2924805-0.0541992-0.3681641-0.0014648L18.098877,27.6875    c-0.7680664,0.5522461-1.9291992,0.5517578-2.7011719-0.0024414l-3.0874023-2.2182617    c-0.0751953-0.0537109-0.293457-0.0541992-0.3696289,0.0004883l-3.8569336,2.7700195    c-0.449707,0.3217773-1.074707,0.2192383-1.3955078-0.2285156c-0.3222656-0.4487305-0.2197266-1.0737305,0.2285156-1.3955078    l3.8564453-2.7700195c0.7705078-0.5541992,1.9321289-0.5541992,2.7036133-0.0009766l3.0883789,2.21875    c0.0756836,0.0541992,0.2919922,0.0561523,0.3666992,0.0019531l3.09375-2.222168    c0.7695313-0.5522461,1.9306641-0.5517578,2.7011719,0.0014648l3.0883789,2.21875    c0.0756836,0.0541992,0.2919922,0.0561523,0.3666992,0.0019531l3.09375-2.222168    c0.7695313-0.5522461,1.9306641-0.5517578,2.7011719,0.0014648l3.0883789,2.21875    c0.0751953,0.0541992,0.2915039,0.0561523,0.3666992,0.0019531l3.09375-2.222168    c0.7695313-0.5522461,1.9306641-0.5517578,2.7011719,0.0014648l3.8569336,2.7709961    c0.4487305,0.3222656,0.5507813,0.9467773,0.2285156,1.3955078C45.1169434,28.2807617,44.8103027,28.425293,44.4992676,28.425293z    "/></g></g><text x="0" y="67" fill="#000000" font-size="5px" font-weight="bold" font-family="'Helvetica Neue', Helvetica, Arial-Unicode, Arial, Sans-serif">Created by DinosoftLab</text><text x="0" y="72" fill="#000000" font-size="5px" font-weight="bold" font-family="'Helvetica Neue', Helvetica, Arial-Unicode, Arial, Sans-serif">from the Noun Project</text></svg>