<svg xmlns="http://www.w3.org/2000/svg" xmlns:xlink="http://www.w3.org/1999/xlink" version="1.1" x="0px" y="0px" viewBox="0 0 89.5 125" style="enable-background:new 0 0 89.5 100;" xml:space="preserve"><path d="M87.1,23.7l-41-23.2c-1-0.5-2.1-0.5-3.1,0L1.6,24c-0.2,0.1-0.5,0.3-0.7,0.5c-0.1,0.1-0.2,0.3-0.4,0.5  c-0.1,0.1-0.2,0.3-0.3,0.5c-0.1,0.1-0.1,0.3-0.1,0.4c0,0.1,0,0.1,0,0.2C0,26.3,0,26.5,0,26.7v48.1c0,1.1,0.6,2.2,1.6,2.7l41.5,22.2  c0.5,0.2,1,0.4,1.5,0.4h0.2c0.5,0,1-0.1,1.5-0.4l41.5-22.2c1-0.5,1.6-1.6,1.6-2.7V26.7C89.5,25.2,88.5,24,87.1,23.7z M44.6,6.7  l15.1,8.6l-16.3,10L28,16.1L44.6,6.7z M22.8,81.7L6.2,72.8V53l16.6,8.7V81.7z M22.8,59.4L6.2,50.7V29.6l16.6,9.4V59.4z M7.3,27.9  l18.6-10.6l15.5,9.1L23.8,37.2L7.3,27.9z M43.8,92.9l-0.2-0.1l-18.7-10v-20l18.7,9.8l0.2,0.1V92.9z M43.8,70.5l-0.2-0.1l-18.7-9.8  V40.2l18.7,10.6l0.2,0.1V70.5z M44.7,49.1L44.6,49L25.9,38.4l17.5-10.7l19,11.2l0.1,0.1L44.7,49.1z M62.7,83.8l-16.8,9l-0.2,0.1  V72.7l0.2-0.1l16.8-8.8V83.8z M62.7,61.3l-16.8,8.8l-0.2,0.1V50.8l17.1-9.7V61.3z M64.5,37.7c-0.1-0.1-0.1-0.1-0.2-0.2L45.5,26.4  l16.3-10l20.1,11.4l0.1,0.1l-17.4,9.9C64.6,37.8,64.5,37.8,64.5,37.7z M83.3,72.8l-18.4,9.9V62.6l18.4-9.7V72.8z M83.3,50.6  l-18.4,9.7V40l18.4-10.5V50.6z"/><text x="0" y="115" fill="#000000" font-size="5px" font-weight="bold" font-family="'Helvetica Neue', Helvetica, Arial-Unicode, Arial, Sans-serif">Created by Alex Bu</text><text x="0" y="120" fill="#000000" font-size="5px" font-weight="bold" font-family="'Helvetica Neue', Helvetica, Arial-Unicode, Arial, Sans-serif">from the Noun Project</text></svg>