<svg xmlns="http://www.w3.org/2000/svg" xmlns:xlink="http://www.w3.org/1999/xlink" version="1.1" x="0px" y="0px" viewBox="0 0 100 125" style="enable-background:new 0 0 100 100;" xml:space="preserve"><style type="text/css">
	.st0{fill:none;stroke:#000000;stroke-width:3;stroke-linecap:round;stroke-miterlimit:10;}
	.st1{fill:none;stroke:#000000;stroke-linecap:round;stroke-miterlimit:10;}
</style><g><path d="M78.6,68.1l-14,14.1V15.4c0-0.3-0.2-0.5-0.5-0.5s-0.5,0.2-0.5,0.5v66.8l-14-14.1c-0.2-0.2-0.5-0.2-0.7,0   c-0.2,0.2-0.2,0.5,0,0.7l15.2,15.4l15.2-15.4c0.2-0.2,0.2-0.5,0-0.7C79.1,67.9,78.8,67.9,78.6,68.1z"/><path d="M35.4,83.5c0,0.3,0.2,0.5,0.5,0.5s0.5-0.2,0.5-0.5V16.7l13.9,14.2c0.1,0.1,0.2,0.2,0.4,0.2c0.1,0,0.3,0,0.3-0.1   c0.2-0.2,0.2-0.5,0-0.7L36.3,15.1c0,0,0,0,0,0l-0.4-0.4L20.7,30c-0.2,0.2-0.2,0.5,0,0.7c0.2,0.2,0.5,0.2,0.7,0l14-14.1V83.5z"/></g><text x="0" y="115" fill="#000000" font-size="5px" font-weight="bold" font-family="'Helvetica Neue', Helvetica, Arial-Unicode, Arial, Sans-serif">Created by nopixel</text><text x="0" y="120" fill="#000000" font-size="5px" font-weight="bold" font-family="'Helvetica Neue', Helvetica, Arial-Unicode, Arial, Sans-serif">from the Noun Project</text></svg>