<svg height='100px' width='100px'  fill="#000000" xmlns="http://www.w3.org/2000/svg" data-name="Layer 1" viewBox="0 0 24 24" x="0px" y="0px"><title>iconoteka_water__drink_b_s</title><path d="M3.88,2,6,20.93A1.19,1.19,0,0,0,7.18,22h9.64A1.19,1.19,0,0,0,18,20.93L20.12,2Zm14,2-.36,3.28A4.27,4.27,0,0,0,16,7a4.64,4.64,0,0,0-2.55.8,2.4,2.4,0,0,1-2.9,0,4.45,4.45,0,0,0-4.07-.51L6.12,4ZM16.1,20H7.9L6.71,9.37a2.4,2.4,0,0,1,2.74.1,4.67,4.67,0,0,0,2.55.8,4.67,4.67,0,0,0,2.55-.8A2.61,2.61,0,0,1,16,9a2.58,2.58,0,0,1,1.29.38Z"></path></svg>