<svg xmlns="http://www.w3.org/2000/svg" xmlns:xlink="http://www.w3.org/1999/xlink" viewBox="0 0 34 42.5" version="1.1" x="0px" y="0px"><title>mileage</title><desc>Created with Sketch.</desc><g stroke="none" stroke-width="1" fill="none" fill-rule="evenodd"><g transform="translate(-110.000000, -203.000000)" fill-rule="nonzero" fill="#000000"><path d="M118.992897,235 C113.641004,232.137145 110,226.493773 110,220 C110,210.611159 117.611159,203 127,203 C136.388841,203 144,210.611159 144,220 C144,226.493773 140.358996,232.137145 135.007103,235 L140,235 C140.552285,235 141,235.447715 141,236 C141,236.552285 140.552285,237 140,237 L114,237 C113.447715,237 113,236.552285 113,236 C113,235.447715 113.447715,235 114,235 L118.992898,235 Z M119.215416,218.148157 C119.074553,218.742529 119,219.362558 119,220 C119,222.328556 119.994853,224.424751 121.582705,225.886731 L124.543088,221.72195 C124.200876,221.234577 124,220.640747 124,220 C124,219.904294 124.004482,219.809634 124.013246,219.71622 L119.215416,218.148157 Z M119.918867,216.273957 L124.866462,217.890968 C125.181833,217.571956 125.568234,217.323313 126,217.170706 L126,212.061894 C123.35515,212.391702 121.111248,214.012581 119.918867,216.273957 Z M134.784584,218.148157 L129.986754,219.71622 C129.995518,219.809634 130,219.904294 130,220 C130,220.719473 129.74673,221.379791 129.324484,221.896663 L132.260581,226.027279 C133.939416,224.560787 135,222.40425 135,220 C135,219.362558 134.925447,218.742529 134.784584,218.148157 Z M134.081133,216.273957 C132.888752,214.012581 130.64485,212.391702 128,212.061894 L128,217.170706 C128.431766,217.323313 128.818167,217.571956 129.133538,217.890968 L134.081133,216.273957 Z M130.601563,227.145378 L127.610751,222.937786 C127.413556,222.978571 127.20928,223 127,223 C126.712382,223 126.434218,222.959525 126.170892,222.88396 L123.211245,227.047708 C124.338988,227.655243 125.629233,228 127,228 C128.295513,228 129.519102,227.692058 130.601563,227.145378 Z M126.827691,210.001455 C126.883668,209.991733 126.941242,209.986665 127,209.986665 C127.058758,209.986665 127.116332,209.991733 127.172309,210.001455 C132.61567,210.093422 137,214.534704 137,220 C137,225.522847 132.522847,230 127,230 C121.477153,230 117,225.522847 117,220 C117,214.534704 121.38433,210.093422 126.827691,210.001455 Z M126.839265,219.01285 C126.363398,219.089738 126,219.502431 126,220 C126,220.552285 126.447715,221 127,221 C127.552285,221 128,220.552285 128,220 C128,219.502431 127.636602,219.089738 127.160735,219.01285 C127.108406,219.021305 127.054716,219.025699 127,219.025699 C126.945284,219.025699 126.891594,219.021305 126.839265,219.01285 Z M127,235 C135.284271,235 142,228.284271 142,220 C142,211.715729 135.284271,205 127,205 C118.715729,205 112,211.715729 112,220 C112,228.284271 118.715729,235 127,235 Z"/></g></g><text x="0" y="49" fill="#000000" font-size="5px" font-weight="bold" font-family="'Helvetica Neue', Helvetica, Arial-Unicode, Arial, Sans-serif">Created by Yaroslav Samoilov</text><text x="0" y="54" fill="#000000" font-size="5px" font-weight="bold" font-family="'Helvetica Neue', Helvetica, Arial-Unicode, Arial, Sans-serif">from the Noun Project</text></svg>