<svg xmlns="http://www.w3.org/2000/svg" xmlns:xlink="http://www.w3.org/1999/xlink" version="1.1" x="0px" y="0px" viewBox="0 0 100 125" style="enable-background:new 0 0 100 100;" xml:space="preserve"><path d="M75.24121,19H24.7583L19,24.7583v50.48291L24.7583,81h50.48291L81,75.24121V24.7583L75.24121,19z M79,63.03418L63.03418,79  H51.37939L79,51.37939V63.03418z M79,48.55127L48.55127,79h-11.6543L79,36.89697V48.55127z M21,36.96582L36.96582,21h11.6543  L21,48.62012V36.96582z M21,51.44824L51.44824,21h11.65527L21,63.10352V51.44824z M25.58643,21h8.55127L21,34.1377v-8.55127  L25.58643,21z M21,65.93164L65.93164,21h8.48145l1.58624,1.58612L22.58636,75.99957L21,74.41309V65.93164z M24.00031,77.41376  l53.41321-53.4137L79,25.58643v8.48242L34.06885,79h-8.48242L24.00031,77.41376z M74.41309,79H65.8623L79,65.8623v8.55078  L74.41309,79z"/><text x="0" y="115" fill="#000000" font-size="5px" font-weight="bold" font-family="'Helvetica Neue', Helvetica, Arial-Unicode, Arial, Sans-serif">Created by Evgeny Filatov</text><text x="0" y="120" fill="#000000" font-size="5px" font-weight="bold" font-family="'Helvetica Neue', Helvetica, Arial-Unicode, Arial, Sans-serif">from the Noun Project</text></svg>