<svg xmlns="http://www.w3.org/2000/svg" xmlns:xlink="http://www.w3.org/1999/xlink" version="1.1" x="0px" y="0px" viewBox="0 0 100 125" enable-background="new 0 0 100 100" xml:space="preserve"><path fill="#000000" d="M68.485,31.136l-6.458-3.958l-6.443-3.957l-0.217-0.133l-0.245,0.062l-10.033,2.546L35.066,28.25  l-10.021,2.543l-0.452,0.115v0.467v10.956v10.96v10.951v0.335l0.286,0.176l6.446,3.958l6.457,3.965l6.457,3.957l0.216,0.133  l0.246-0.062l10.023-2.553l10.03-2.547l10.022-2.55l0.451-0.115v-0.466V57.52V46.564V35.605v-0.336l-0.286-0.176L68.485,31.136z   M74.329,68.239l-9.422,2.397V60.298l9.422-2.393V68.239z M25.492,64.073V53.827l5.847,3.589v10.246L25.492,64.073z M45.188,26.601  l5.743,3.521l-9.21,2.347l-5.743-3.521L45.188,26.601z M61.664,28.012l5.745,3.521L58.2,33.879l-5.744-3.527L61.664,28.012z   M73.866,35.49l-9.21,2.347l-5.743-3.521l9.21-2.347L73.866,35.49z M64.308,70.788l-9.432,2.396V62.85l9.432-2.4V70.788z   M35.166,29.154l5.742,3.519l-9.221,2.339l-5.732-3.521L35.166,29.154z M51.644,30.559l5.743,3.526l-9.22,2.339l-5.733-3.52  L51.644,30.559z M64.308,59.831l-9.432,2.399V51.896l9.432-2.399V59.831z M41.623,33.112l5.733,3.52l-9.211,2.344l-5.743-3.525  L41.623,33.112z M44.603,42.934l-5.744-3.521l9.21-2.345l5.745,3.521L44.603,42.934z M31.938,35.871l5.857,3.595v10.248l-5.857-3.59  V35.871z M38.396,39.834l5.857,3.59v10.248l-5.857-3.59V39.834z M44.853,43.489l9.424-2.398V51.43l-9.424,2.393V43.489z   M54.876,51.278v-10.34l9.432-2.394v10.334L54.876,51.278z M54.625,40.382l-5.743-3.52l9.22-2.339l5.742,3.52L54.625,40.382z   M31.938,46.829l5.857,3.59V60.67l-5.857-3.59V46.829z M38.396,50.787l5.857,3.59v10.25l-5.857-3.59V50.787z M44.853,54.441  l9.424-2.392v10.333l-9.424,2.395V54.441z M31.339,35.503v10.254l-5.847-3.594V31.912L31.339,35.503z M31.339,46.461v10.25  l-5.847-3.589V42.867L31.339,46.461z M31.938,68.031V57.784l5.857,3.591v10.252L31.938,68.031z M38.396,61.742l5.857,3.59v10.254  l-5.857-3.59V61.742z M44.853,65.396l9.424-2.395v10.334l-9.424,2.4V65.396z M74.329,57.285l-9.422,2.393V49.345l9.422-2.395V57.285  z M74.329,46.331l-9.422,2.395V38.392l9.422-2.401V46.331z M60.951,27.574l-9.208,2.34L46,26.395l9.221-2.34L60.951,27.574z"/><text x="0" y="115" fill="#000000" font-size="5px" font-weight="bold" font-family="'Helvetica Neue', Helvetica, Arial-Unicode, Arial, Sans-serif">Created by Lluisa Iborra</text><text x="0" y="120" fill="#000000" font-size="5px" font-weight="bold" font-family="'Helvetica Neue', Helvetica, Arial-Unicode, Arial, Sans-serif">from the Noun Project</text></svg>