<svg xmlns="http://www.w3.org/2000/svg" viewBox="0 0 66 82.5" x="0px" y="0px"><title>Artboard 81</title><path d="M40,41.06V8A7,7,0,0,0,26,8V41.06A13,13,0,0,0,20,52.3,13.18,13.18,0,0,0,32.49,65H33A13,13,0,0,0,46,52,13,13,0,0,0,40,41.06Zm.63,18.87A11,11,0,0,1,32.57,63,11,11,0,0,1,27.5,42.48a1,1,0,0,0,.5-.86V8A5,5,0,0,1,38,8V41.62a1,1,0,0,0,.5.86A11.06,11.06,0,0,1,44,52,10.94,10.94,0,0,1,40.63,59.93Z"/><path d="M36,44.59V22a3,3,0,0,0-6,0V44.58a8,8,0,0,0,1.4,15.26A7.8,7.8,0,0,0,33,60a8,8,0,0,0,3-15.41Zm.81,12a6,6,0,0,1-5,1.25,6,6,0,0,1-4.67-4.72,6,6,0,0,1,4.18-6.91,1,1,0,0,0,.71-1V22a1,1,0,0,1,2,0V45.29a1,1,0,0,0,.71,1A6,6,0,0,1,39,52,6,6,0,0,1,36.81,56.63Z"/><path d="M43,11h2a1,1,0,0,0,0-2H43a1,1,0,0,0,0,2Z"/><path d="M45,14H43a1,1,0,0,0,0,2h2a1,1,0,0,0,0-2Z"/><path d="M45,19H43a1,1,0,0,0,0,2h2a1,1,0,0,0,0-2Z"/><path d="M45,24H43a1,1,0,0,0,0,2h2a1,1,0,0,0,0-2Z"/><path d="M45,29H43a1,1,0,0,0,0,2h2a1,1,0,0,0,0-2Z"/><path d="M45,34H43a1,1,0,0,0,0,2h2a1,1,0,0,0,0-2Z"/><text x="0" y="81" fill="#000000" font-size="5px" font-weight="bold" font-family="'Helvetica Neue', Helvetica, Arial-Unicode, Arial, Sans-serif">Created by Oblak Labs</text><text x="0" y="86" fill="#000000" font-size="5px" font-weight="bold" font-family="'Helvetica Neue', Helvetica, Arial-Unicode, Arial, Sans-serif">from the Noun Project</text></svg>