<svg xmlns="http://www.w3.org/2000/svg" xmlns:xlink="http://www.w3.org/1999/xlink" version="1.1" x="0px" y="0px" viewBox="0 0 490 612.5" style="enable-background:new 0 0 490 490;" xml:space="preserve"><path d="M309.742,140.132L335.7,94.9c3.1-6.3,3.1-14.6,0-20.9l-36.5-63.6C295.1,4.2,288.8,0,281.5,0h-74c-7.3,0-14.6,4.1-17.7,10.4  L153.3,74c-3.1,6.3-3.1,14.6,0,20.9l26.074,45.433C111.662,166.389,63.6,231.639,63.6,308.6C63.6,408.7,144.9,490,245,490  s181.4-80.3,181.4-180.4C426.4,232.305,377.918,166.231,309.742,140.132z M220,128.2l-25-43.8l25-43.8h50l25,43.8l-25,43.8H220z   M245,450.3c-78.1,0-140.7-63.6-140.7-140.7c0-78.1,63.6-140.7,140.7-140.7s140.7,62.6,140.7,140.7S322.1,450.3,245,450.3z"/><text x="0" y="505" fill="#000000" font-size="5px" font-weight="bold" font-family="'Helvetica Neue', Helvetica, Arial-Unicode, Arial, Sans-serif">Created by Made My Made</text><text x="0" y="510" fill="#000000" font-size="5px" font-weight="bold" font-family="'Helvetica Neue', Helvetica, Arial-Unicode, Arial, Sans-serif">from the Noun Project</text></svg>