<svg xmlns="http://www.w3.org/2000/svg" xmlns:xlink="http://www.w3.org/1999/xlink" version="1.1" x="0px" y="0px" viewBox="0 0 300 375" style="enable-background:new 0 0 300 300;" xml:space="preserve"><g><path d="M276.6,243.8c0-0.2,0-0.3,0-0.5c0,0,0,0,0,0c0-0.2-0.1-0.3-0.2-0.5c0,0,0-0.1-0.1-0.1c-0.1-0.2-0.2-0.3-0.3-0.4l-15.6-15.6   c-0.8-0.8-2-0.8-2.8,0c-0.8,0.8-0.8,2,0,2.8l12.2,12.2H57.8V29.8L70,42c0.4,0.4,0.9,0.6,1.4,0.6s1-0.2,1.4-0.6c0.8-0.8,0.8-2,0-2.8   L57.2,23.5c0,0-0.1-0.1-0.1-0.1c0,0-0.1-0.1-0.1-0.1c-0.1-0.1-0.3-0.2-0.4-0.3c0,0,0,0,0,0c0,0,0,0,0,0C56.4,23,56.3,23,56.1,23   c0,0-0.1,0-0.1,0c-0.2,0-0.3,0-0.5,0c0,0,0,0,0,0c-0.2,0-0.3,0.1-0.5,0.2c0,0-0.1,0-0.1,0.1c-0.2,0.1-0.3,0.2-0.4,0.3L38.8,39.1   c-0.8,0.8-0.8,2,0,2.8c0.8,0.8,2,0.8,2.8,0l12.2-12.2v211.9H24.6c-1.1,0-2,0.9-2,2s0.9,2,2,2h29.3v29.3c0,1.1,0.9,2,2,2s2-0.9,2-2   v-29.3h211.9l-12.2,12.2c-0.8,0.8-0.8,2,0,2.8c0.4,0.4,0.9,0.6,1.4,0.6s1-0.2,1.4-0.6l15.6-15.6c0,0,0.1-0.1,0.1-0.1   c0,0,0.1-0.1,0.1-0.1c0.1-0.1,0.2-0.3,0.3-0.4c0,0,0,0,0,0c0,0,0,0,0,0c0.1-0.2,0.1-0.3,0.1-0.5   C276.6,243.9,276.6,243.9,276.6,243.8z"/><path d="M87.1,214.4c1.1,0,2-0.9,2-2c0-32.1,8.2-70.7,21.3-100.8c15.1-34.5,34.6-53.5,54.8-53.5s39.7,19,54.8,53.5   c13.1,30.1,21.3,68.7,21.3,100.8c0,1.1,0.9,2,2,2s2-0.9,2-2c0-32.6-8.3-71.8-21.7-102.4c-15.8-36-36.5-55.9-58.5-55.9   c-21.9,0-42.7,19.8-58.5,55.9c-13.4,30.5-21.7,69.8-21.7,102.4C85.1,213.5,86,214.4,87.1,214.4z"/></g><text x="0" y="315" fill="#000000" font-size="5px" font-weight="bold" font-family="'Helvetica Neue', Helvetica, Arial-Unicode, Arial, Sans-serif">Created by Bastien Delmare</text><text x="0" y="320" fill="#000000" font-size="5px" font-weight="bold" font-family="'Helvetica Neue', Helvetica, Arial-Unicode, Arial, Sans-serif">from the Noun Project</text></svg>