<svg xmlns="http://www.w3.org/2000/svg" data-name="Layer 1" viewBox="0 0 512 640" x="0px" y="0px"><title>Bet</title><path d="M217,213a28,28,0,0,0-28-28H42a28,28,0,0,0-28,28V360a28,28,0,0,0,28,28H189a28,28,0,0,0,28-28ZM201,360a12,12,0,0,1-12,12H42a12,12,0,0,1-12-12V213a12,12,0,0,1,12-12H189a12,12,0,0,1,12,12Z"/><path d="M115.631,313.314a27.086,27.086,0,1,0-27.086-27.086A27.116,27.116,0,0,0,115.631,313.314Zm0-38.171a11.086,11.086,0,1,1-11.086,11.085A11.1,11.1,0,0,1,115.631,275.143Z"/><path d="M64.736,262.419A27.086,27.086,0,1,0,37.65,235.333,27.116,27.116,0,0,0,64.736,262.419Zm0-38.171A11.086,11.086,0,1,1,53.65,235.333,11.1,11.1,0,0,1,64.736,224.248Z"/><path d="M166.526,364.208a27.085,27.085,0,1,0-27.086-27.085A27.115,27.115,0,0,0,166.526,364.208Zm0-38.17a11.085,11.085,0,1,1-11.086,11.085A11.1,11.1,0,0,1,166.526,326.038Z"/><path d="M422.406,138.422a28.031,28.031,0,0,0-38.116-10.731L255.785,199.735a28.033,28.033,0,0,0-10.731,38.117l72.045,128.5a27.814,27.814,0,0,0,16.836,13.26,28.137,28.137,0,0,0,7.629,1.06,27.841,27.841,0,0,0,13.651-3.59l128.5-72.044h0a28,28,0,0,0,10.731-38.116Zm59.172,145.449a11.922,11.922,0,0,1-5.683,7.215l-128.5,72.044a12,12,0,0,1-16.336-4.6l-72.044-128.5a12.014,12.014,0,0,1,4.6-16.336l128.5-72.044a12.008,12.008,0,0,1,16.336,4.6l72.044,128.5A11.929,11.929,0,0,1,481.578,283.871Z"/><path d="M324.1,219.638a27.087,27.087,0,1,0,2.446,20.586A26.9,26.9,0,0,0,324.1,219.638Zm-18.2,22.915a11.085,11.085,0,1,1,4.248-15.091h0A11.1,11.1,0,0,1,305.891,242.553Z"/><path d="M462.661,258.648a27.078,27.078,0,1,0-10.38,36.872,26.9,26.9,0,0,0,10.38-36.872Zm-18.2,22.915a11.084,11.084,0,1,1,4.248-15.09h0A11.1,11.1,0,0,1,444.457,281.563Z"/><path d="M412.884,169.86h0a27.085,27.085,0,1,0-30.966,39.318A27.227,27.227,0,0,0,389.3,210.2a27.108,27.108,0,0,0,23.586-40.344Zm-18.206,22.915a11.084,11.084,0,1,1,4.249-15.09h0A11.1,11.1,0,0,1,394.678,192.775Z"/><path d="M337,298.046a27.086,27.086,0,0,0,5.9,49.7,27.216,27.216,0,0,0,7.381,1.026A27.091,27.091,0,1,0,337,298.046Zm18.666,33.3a11.085,11.085,0,1,1,4.249-15.092A11.024,11.024,0,0,1,355.668,331.342Z"/><text x="0" y="527" fill="#000000" font-size="5px" font-weight="bold" font-family="'Helvetica Neue', Helvetica, Arial-Unicode, Arial, Sans-serif">Created by Kiran Shastry</text><text x="0" y="532" fill="#000000" font-size="5px" font-weight="bold" font-family="'Helvetica Neue', Helvetica, Arial-Unicode, Arial, Sans-serif">from the Noun Project</text></svg>