<svg xmlns="http://www.w3.org/2000/svg" xmlns:xlink="http://www.w3.org/1999/xlink" version="1.1" x="0px" y="0px" viewBox="0 0 64 80" enable-background="new 0 0 64 64" xml:space="preserve"><g><path d="M46.878,27.521C46.702,27.2,46.366,27,46,27H35.105l1.89-18.9c0.046-0.46-0.229-0.892-0.666-1.044   c-0.436-0.151-0.921,0.014-1.17,0.404l-18,28c-0.198,0.308-0.212,0.699-0.037,1.021C17.297,36.8,17.634,37,18,37h10.895l-1.89,18.9   c-0.046,0.46,0.229,0.892,0.666,1.044C27.779,56.982,27.89,57,28,57c0.333,0,0.653-0.167,0.841-0.459l18-28   C47.039,28.233,47.053,27.842,46.878,27.521z M29.409,51.959L30.995,36.1c0.028-0.281-0.064-0.562-0.254-0.771   C30.552,35.119,30.283,35,30,35H19.832l14.759-22.959L33.005,27.9c-0.028,0.281,0.064,0.561,0.254,0.771S33.718,29,34,29h10.168   L29.409,51.959z"/></g><text x="0" y="79" fill="#000000" font-size="5px" font-weight="bold" font-family="'Helvetica Neue', Helvetica, Arial-Unicode, Arial, Sans-serif">Created by Ralf Schmitzer</text><text x="0" y="84" fill="#000000" font-size="5px" font-weight="bold" font-family="'Helvetica Neue', Helvetica, Arial-Unicode, Arial, Sans-serif">from the Noun Project</text></svg>